<svg xmlns="http://www.w3.org/2000/svg" viewBox="0 0 360 633" width="100%" role="img" aria-labelledby="loop-2026-09-19-es-narrow-t loop-2026-09-19-es-narrow-d">
	<title id="loop-2026-09-19-es-narrow-t">La vuelta del bucle, hora a hora</title>
	<desc id="loop-2026-09-19-es-narrow-d">Por horas, del 2026-09-19 11:00 al 2026-09-24 11:00 UTC, del almacén InfluxDB de referencia (RB5009UG+S+, RouterOS 7.24.4, Linux 5.6.3). Hasta el 2026-09-20 21:00 el kernel anotó como mucho 12 registros de dirección propia por hora, mientras el bridge no enviaba nada a sfp-sfpplus1 en ninguna hora y recibía 6,5 por segundo de él. Desde entonces y hasta el último registro, el 2026-09-23 12:06:46, registró una mediana de 1 798 por hora, uno cada 2,0 s, y el bridge envió a ether2 0,6 paquetes por segundo frente a 13 recibidos. Después, ether2 recibió 183 y se le enviaron 144. Las tasas son medianas de las medias horarias.</desc>
	<rect x="291.6" y="55" width="58.4" height="36" fill="none"/>
	<rect x="291.6" y="170" width="58.4" height="100" fill="none"/>
	<rect x="291.6" y="340" width="58.4" height="100" fill="none"/>
	<rect x="291.6" y="510" width="58.4" height="100" fill="none"/>
	<rect x="130.7" y="55" width="160.9" height="36" fill="var(--ms-status-bad-soft, #fbe7e6)"/>
	<rect x="130.7" y="170" width="160.9" height="100" fill="var(--ms-status-bad-soft, #fbe7e6)"/>
	<rect x="130.7" y="340" width="160.9" height="100" fill="var(--ms-status-bad-soft, #fbe7e6)"/>
	<rect x="130.7" y="510" width="160.9" height="100" fill="var(--ms-status-bad-soft, #fbe7e6)"/>
	<rect x="44" y="55" width="86.7" height="36" fill="var(--ms-status-bad-soft, #fbe7e6)"/>
	<rect x="44" y="170" width="86.7" height="100" fill="var(--ms-status-bad-soft, #fbe7e6)"/>
	<rect x="44" y="340" width="86.7" height="100" fill="var(--ms-status-bad-soft, #fbe7e6)"/>
	<rect x="44" y="510" width="86.7" height="100" fill="var(--ms-status-bad-soft, #fbe7e6)"/>
	<line x1="44" y1="270" x2="350" y2="270" stroke="var(--ms-border, #d4dade)" stroke-width="1"/>
	<line x1="44" y1="220" x2="350" y2="220" stroke="var(--ms-border, #d4dade)" stroke-width="1"/>
	<line x1="44" y1="170" x2="350" y2="170" stroke="var(--ms-border, #d4dade)" stroke-width="1"/>
	<line x1="44" y1="440" x2="350" y2="440" stroke="var(--ms-border, #d4dade)" stroke-width="1"/>
	<line x1="44" y1="415" x2="350" y2="415" stroke="var(--ms-border, #d4dade)" stroke-width="1"/>
	<line x1="44" y1="390" x2="350" y2="390" stroke="var(--ms-border, #d4dade)" stroke-width="1"/>
	<line x1="44" y1="365" x2="350" y2="365" stroke="var(--ms-border, #d4dade)" stroke-width="1"/>
	<line x1="44" y1="340" x2="350" y2="340" stroke="var(--ms-border, #d4dade)" stroke-width="1"/>
	<line x1="44" y1="610" x2="350" y2="610" stroke="var(--ms-border, #d4dade)" stroke-width="1"/>
	<line x1="44" y1="585" x2="350" y2="585" stroke="var(--ms-border, #d4dade)" stroke-width="1"/>
	<line x1="44" y1="560" x2="350" y2="560" stroke="var(--ms-border, #d4dade)" stroke-width="1"/>
	<line x1="44" y1="535" x2="350" y2="535" stroke="var(--ms-border, #d4dade)" stroke-width="1"/>
	<line x1="44" y1="510" x2="350" y2="510" stroke="var(--ms-border, #d4dade)" stroke-width="1"/>
	<line x1="77.2" y1="170" x2="77.2" y2="270" stroke="var(--ms-border, #d4dade)" stroke-width="1" stroke-dasharray="2 3"/>
	<line x1="77.2" y1="340" x2="77.2" y2="440" stroke="var(--ms-border, #d4dade)" stroke-width="1" stroke-dasharray="2 3"/>
	<line x1="77.2" y1="510" x2="77.2" y2="610" stroke="var(--ms-border, #d4dade)" stroke-width="1" stroke-dasharray="2 3"/>
	<line x1="138.4" y1="170" x2="138.4" y2="270" stroke="var(--ms-border, #d4dade)" stroke-width="1" stroke-dasharray="2 3"/>
	<line x1="138.4" y1="340" x2="138.4" y2="440" stroke="var(--ms-border, #d4dade)" stroke-width="1" stroke-dasharray="2 3"/>
	<line x1="138.4" y1="510" x2="138.4" y2="610" stroke="var(--ms-border, #d4dade)" stroke-width="1" stroke-dasharray="2 3"/>
	<line x1="199.5" y1="170" x2="199.5" y2="270" stroke="var(--ms-border, #d4dade)" stroke-width="1" stroke-dasharray="2 3"/>
	<line x1="199.5" y1="340" x2="199.5" y2="440" stroke="var(--ms-border, #d4dade)" stroke-width="1" stroke-dasharray="2 3"/>
	<line x1="199.5" y1="510" x2="199.5" y2="610" stroke="var(--ms-border, #d4dade)" stroke-width="1" stroke-dasharray="2 3"/>
	<line x1="260.8" y1="170" x2="260.8" y2="270" stroke="var(--ms-border, #d4dade)" stroke-width="1" stroke-dasharray="2 3"/>
	<line x1="260.8" y1="340" x2="260.8" y2="440" stroke="var(--ms-border, #d4dade)" stroke-width="1" stroke-dasharray="2 3"/>
	<line x1="260.8" y1="510" x2="260.8" y2="610" stroke="var(--ms-border, #d4dade)" stroke-width="1" stroke-dasharray="2 3"/>
	<line x1="322" y1="170" x2="322" y2="270" stroke="var(--ms-border, #d4dade)" stroke-width="1" stroke-dasharray="2 3"/>
	<line x1="322" y1="340" x2="322" y2="440" stroke="var(--ms-border, #d4dade)" stroke-width="1" stroke-dasharray="2 3"/>
	<line x1="322" y1="510" x2="322" y2="610" stroke="var(--ms-border, #d4dade)" stroke-width="1" stroke-dasharray="2 3"/>
	<text x="2" y="17" font-family="ui-sans-serif,system-ui,sans-serif" font-size="11" fill="var(--ms-muted, #5a666d)">RB5009UG+S+ · RouterOS 7.24.4 · Linux 5.6.3</text>
	<text x="2" y="32" font-family="ui-sans-serif,system-ui,sans-serif" font-size="11" fill="var(--ms-muted, #5a666d)">del 2026-09-19 11:00 al 2026-09-24 11:00 UTC</text>
	<text x="2" y="47" font-family="ui-sans-serif,system-ui,sans-serif" font-size="11" fill="var(--ms-muted, #5a666d)">por horas, del almacén InfluxDB de referencia</text>
	<text x="48" y="69" font-family="ui-sans-serif,system-ui,sans-serif" font-size="11" font-weight="600" fill="var(--ms-body, #2d383f)">sfp-sfpplus1</text>
	<text x="48" y="83" font-family="ui-sans-serif,system-ui,sans-serif" font-size="11" font-weight="600" fill="var(--ms-body, #2d383f)">aislado</text>
	<text x="134.7" y="69" font-family="ui-sans-serif,system-ui,sans-serif" font-size="11" font-weight="600" fill="var(--ms-body, #2d383f)">ether2 aislado</text>
	<text x="295.6" y="69" font-family="ui-sans-serif,system-ui,sans-serif" font-size="11" font-weight="600" fill="var(--ms-body, #2d383f)">sin</text>
	<text x="295.6" y="83" font-family="ui-sans-serif,system-ui,sans-serif" font-size="11" font-weight="600" fill="var(--ms-body, #2d383f)">bucle</text>
	<text x="2" y="112" font-family="ui-sans-serif,system-ui,sans-serif" font-size="12" font-weight="600" fill="var(--ms-heading, #10171b)">Registros de dirección propia en el log del kernel,</text>
	<text x="2" y="127" font-family="ui-sans-serif,system-ui,sans-serif" font-size="12" font-weight="600" fill="var(--ms-heading, #10171b)">por hora</text>
	<text x="2" y="142" font-family="ui-sans-serif,system-ui,sans-serif" font-size="11" fill="var(--ms-muted, #5a666d)">como mucho 12 por hora antes del 09-20 21:00, después una</text>
	<text x="2" y="157" font-family="ui-sans-serif,system-ui,sans-serif" font-size="11" fill="var(--ms-muted, #5a666d)">mediana de 1 798</text>
	<text x="39" y="273.7" text-anchor="end" font-family="ui-sans-serif,system-ui,sans-serif" font-size="11" fill="var(--ms-muted, #5a666d)">0</text>
	<text x="39" y="223.7" text-anchor="end" font-family="ui-sans-serif,system-ui,sans-serif" font-size="11" fill="var(--ms-muted, #5a666d)">1 000</text>
	<text x="39" y="173.7" text-anchor="end" font-family="ui-sans-serif,system-ui,sans-serif" font-size="11" fill="var(--ms-muted, #5a666d)">2 000</text>
	<rect x="51.7" y="269.8" width="2.5" height="0.2" fill="var(--ms-status-bad, #b3352f)"/>
	<rect x="59.3" y="269.9" width="2.5" height="0.1" fill="var(--ms-status-bad, #b3352f)"/>
	<rect x="61.9" y="269.8" width="2.5" height="0.2" fill="var(--ms-status-bad, #b3352f)"/>
	<rect x="64.4" y="269.4" width="2.5" height="0.6" fill="var(--ms-status-bad, #b3352f)"/>
	<rect x="72.1" y="269.9" width="2.5" height="0.1" fill="var(--ms-status-bad, #b3352f)"/>
	<rect x="74.6" y="269.9" width="2.5" height="0.1" fill="var(--ms-status-bad, #b3352f)"/>
	<rect x="77.2" y="269.7" width="2.5" height="0.3" fill="var(--ms-status-bad, #b3352f)"/>
	<rect x="95" y="269.9" width="2.5" height="0.1" fill="var(--ms-status-bad, #b3352f)"/>
	<rect x="100.1" y="269.8" width="2.5" height="0.2" fill="var(--ms-status-bad, #b3352f)"/>
	<rect x="105.2" y="269.8" width="2.5" height="0.2" fill="var(--ms-status-bad, #b3352f)"/>
	<rect x="107.8" y="269.9" width="2.5" height="0.1" fill="var(--ms-status-bad, #b3352f)"/>
	<rect x="110.3" y="269.9" width="2.5" height="0.1" fill="var(--ms-status-bad, #b3352f)"/>
	<rect x="112.9" y="269.9" width="2.5" height="0.1" fill="var(--ms-status-bad, #b3352f)"/>
	<rect x="120.5" y="269.8" width="2.5" height="0.2" fill="var(--ms-status-bad, #b3352f)"/>
	<rect x="123.1" y="269.9" width="2.5" height="0.1" fill="var(--ms-status-bad, #b3352f)"/>
	<rect x="125.6" y="269.9" width="2.5" height="0.1" fill="var(--ms-status-bad, #b3352f)"/>
	<rect x="128.2" y="269.7" width="2.5" height="0.3" fill="var(--ms-status-bad, #b3352f)"/>
	<rect x="130.7" y="201.8" width="2.5" height="68.2" fill="var(--ms-status-bad, #b3352f)"/>
	<rect x="133.3" y="180.1" width="2.5" height="89.9" fill="var(--ms-status-bad, #b3352f)"/>
	<rect x="135.8" y="180.1" width="2.5" height="89.9" fill="var(--ms-status-bad, #b3352f)"/>
	<rect x="138.4" y="180" width="2.5" height="90" fill="var(--ms-status-bad, #b3352f)"/>
	<rect x="140.9" y="180.1" width="2.5" height="89.9" fill="var(--ms-status-bad, #b3352f)"/>
	<rect x="143.5" y="180.1" width="2.5" height="89.9" fill="var(--ms-status-bad, #b3352f)"/>
	<rect x="146" y="180.1" width="2.5" height="89.9" fill="var(--ms-status-bad, #b3352f)"/>
	<rect x="148.6" y="180.1" width="2.5" height="89.9" fill="var(--ms-status-bad, #b3352f)"/>
	<rect x="151.1" y="180.1" width="2.5" height="89.9" fill="var(--ms-status-bad, #b3352f)"/>
	<rect x="153.7" y="180.2" width="2.5" height="89.8" fill="var(--ms-status-bad, #b3352f)"/>
	<rect x="156.2" y="180.1" width="2.5" height="89.9" fill="var(--ms-status-bad, #b3352f)"/>
	<rect x="158.8" y="180.3" width="2.5" height="89.8" fill="var(--ms-status-bad, #b3352f)"/>
	<rect x="161.3" y="180.2" width="2.5" height="89.8" fill="var(--ms-status-bad, #b3352f)"/>
	<rect x="163.9" y="180.3" width="2.5" height="89.8" fill="var(--ms-status-bad, #b3352f)"/>
	<rect x="166.4" y="180.2" width="2.5" height="89.8" fill="var(--ms-status-bad, #b3352f)"/>
	<rect x="169" y="180.1" width="2.5" height="89.9" fill="var(--ms-status-bad, #b3352f)"/>
	<rect x="171.5" y="180.1" width="2.5" height="89.9" fill="var(--ms-status-bad, #b3352f)"/>
	<rect x="174" y="180.2" width="2.5" height="89.9" fill="var(--ms-status-bad, #b3352f)"/>
	<rect x="176.6" y="180.1" width="2.5" height="89.9" fill="var(--ms-status-bad, #b3352f)"/>
	<rect x="179.2" y="183.3" width="2.5" height="86.7" fill="var(--ms-status-bad, #b3352f)"/>
	<rect x="181.7" y="180.2" width="2.5" height="89.9" fill="var(--ms-status-bad, #b3352f)"/>
	<rect x="184.3" y="180.3" width="2.5" height="89.8" fill="var(--ms-status-bad, #b3352f)"/>
	<rect x="186.8" y="180.2" width="2.5" height="89.8" fill="var(--ms-status-bad, #b3352f)"/>
	<rect x="189.4" y="180.2" width="2.5" height="89.8" fill="var(--ms-status-bad, #b3352f)"/>
	<rect x="191.9" y="180.3" width="2.5" height="89.8" fill="var(--ms-status-bad, #b3352f)"/>
	<rect x="194.5" y="180.2" width="2.5" height="89.8" fill="var(--ms-status-bad, #b3352f)"/>
	<rect x="197" y="180.1" width="2.5" height="89.9" fill="var(--ms-status-bad, #b3352f)"/>
	<rect x="199.5" y="180" width="2.5" height="90" fill="var(--ms-status-bad, #b3352f)"/>
	<rect x="202.1" y="180.1" width="2.5" height="89.9" fill="var(--ms-status-bad, #b3352f)"/>
	<rect x="204.7" y="180.1" width="2.5" height="89.9" fill="var(--ms-status-bad, #b3352f)"/>
	<rect x="207.2" y="180.1" width="2.5" height="89.9" fill="var(--ms-status-bad, #b3352f)"/>
	<rect x="209.8" y="180.1" width="2.5" height="89.9" fill="var(--ms-status-bad, #b3352f)"/>
	<rect x="212.3" y="180.1" width="2.5" height="89.9" fill="var(--ms-status-bad, #b3352f)"/>
	<rect x="214.9" y="180.2" width="2.5" height="89.9" fill="var(--ms-status-bad, #b3352f)"/>
	<rect x="217.4" y="180.1" width="2.5" height="89.9" fill="var(--ms-status-bad, #b3352f)"/>
	<rect x="220" y="180.3" width="2.5" height="89.8" fill="var(--ms-status-bad, #b3352f)"/>
	<rect x="222.5" y="180.2" width="2.5" height="89.9" fill="var(--ms-status-bad, #b3352f)"/>
	<rect x="225.1" y="180.1" width="2.5" height="89.9" fill="var(--ms-status-bad, #b3352f)"/>
	<rect x="227.6" y="180.1" width="2.5" height="89.9" fill="var(--ms-status-bad, #b3352f)"/>
	<rect x="230.2" y="180.2" width="2.5" height="89.9" fill="var(--ms-status-bad, #b3352f)"/>
	<rect x="232.7" y="180" width="2.5" height="90" fill="var(--ms-status-bad, #b3352f)"/>
	<rect x="235.3" y="180.1" width="2.5" height="89.9" fill="var(--ms-status-bad, #b3352f)"/>
	<rect x="237.8" y="180.3" width="2.5" height="89.8" fill="var(--ms-status-bad, #b3352f)"/>
	<rect x="240.4" y="180.3" width="2.5" height="89.7" fill="var(--ms-status-bad, #b3352f)"/>
	<rect x="242.9" y="180.1" width="2.5" height="89.9" fill="var(--ms-status-bad, #b3352f)"/>
	<rect x="245.5" y="180.4" width="2.5" height="89.6" fill="var(--ms-status-bad, #b3352f)"/>
	<rect x="248" y="180.1" width="2.5" height="89.9" fill="var(--ms-status-bad, #b3352f)"/>
	<rect x="250.6" y="180.1" width="2.5" height="89.9" fill="var(--ms-status-bad, #b3352f)"/>
	<rect x="253.1" y="180.1" width="2.5" height="89.9" fill="var(--ms-status-bad, #b3352f)"/>
	<rect x="255.7" y="180.2" width="2.5" height="89.9" fill="var(--ms-status-bad, #b3352f)"/>
	<rect x="258.2" y="180.1" width="2.5" height="89.9" fill="var(--ms-status-bad, #b3352f)"/>
	<rect x="260.8" y="180.1" width="2.5" height="89.9" fill="var(--ms-status-bad, #b3352f)"/>
	<rect x="263.3" y="180.1" width="2.5" height="89.9" fill="var(--ms-status-bad, #b3352f)"/>
	<rect x="265.9" y="180.1" width="2.5" height="89.9" fill="var(--ms-status-bad, #b3352f)"/>
	<rect x="268.4" y="180.1" width="2.5" height="89.9" fill="var(--ms-status-bad, #b3352f)"/>
	<rect x="271" y="180.1" width="2.5" height="89.9" fill="var(--ms-status-bad, #b3352f)"/>
	<rect x="273.5" y="180.1" width="2.5" height="89.9" fill="var(--ms-status-bad, #b3352f)"/>
	<rect x="276" y="180.1" width="2.5" height="89.9" fill="var(--ms-status-bad, #b3352f)"/>
	<rect x="278.6" y="180.1" width="2.5" height="89.9" fill="var(--ms-status-bad, #b3352f)"/>
	<rect x="281.2" y="180.2" width="2.5" height="89.9" fill="var(--ms-status-bad, #b3352f)"/>
	<rect x="283.7" y="180.2" width="2.5" height="89.9" fill="var(--ms-status-bad, #b3352f)"/>
	<rect x="286.3" y="180.1" width="2.5" height="89.9" fill="var(--ms-status-bad, #b3352f)"/>
	<rect x="288.8" y="180.1" width="2.5" height="89.9" fill="var(--ms-status-bad, #b3352f)"/>
	<rect x="291.4" y="259.8" width="2.5" height="10.2" fill="var(--ms-status-bad, #b3352f)"/>
	<line x1="44" y1="270" x2="350" y2="270" stroke="var(--ms-border-strong, #aab4ba)" stroke-width="1"/>
	<text x="2" y="295" font-family="ui-sans-serif,system-ui,sans-serif" font-size="12" font-weight="600" fill="var(--ms-heading, #10171b)">ether2: paquetes por segundo, media horaria, escala</text>
	<text x="2" y="310" font-family="ui-sans-serif,system-ui,sans-serif" font-size="12" font-weight="600" fill="var(--ms-heading, #10171b)">logarítmica</text>
	<line x1="2" y1="322.5" x2="16" y2="322.5" stroke="var(--ms-info, #17558f)" stroke-width="2"/>
	<text x="20" y="327" font-family="ui-sans-serif,system-ui,sans-serif" font-size="11" fill="var(--ms-body, #2d383f)">recibidos</text>
	<line x1="87.44" y1="322.5" x2="101.44" y2="322.5" stroke="var(--ms-mark-quiet, #b45309)" stroke-width="2" stroke-dasharray="5 3"/>
	<text x="105.4" y="327" font-family="ui-sans-serif,system-ui,sans-serif" font-size="11" fill="var(--ms-body, #2d383f)">enviados por el bridge</text>
	<text x="39" y="443.7" text-anchor="end" font-family="ui-sans-serif,system-ui,sans-serif" font-size="11" fill="var(--ms-muted, #5a666d)">≤0,1</text>
	<text x="39" y="418.7" text-anchor="end" font-family="ui-sans-serif,system-ui,sans-serif" font-size="11" fill="var(--ms-muted, #5a666d)">1</text>
	<text x="39" y="393.7" text-anchor="end" font-family="ui-sans-serif,system-ui,sans-serif" font-size="11" fill="var(--ms-muted, #5a666d)">10</text>
	<text x="39" y="368.7" text-anchor="end" font-family="ui-sans-serif,system-ui,sans-serif" font-size="11" fill="var(--ms-muted, #5a666d)">100</text>
	<text x="39" y="343.7" text-anchor="end" font-family="ui-sans-serif,system-ui,sans-serif" font-size="11" fill="var(--ms-muted, #5a666d)">1 000</text>
	<path d="M45.3 353.3L47.8 353.4L50.4 352.9L52.9 352.8L55.5 352.7L58 352.8L60.6 352.1L63.1 351.1L65.7 351.4L68.2 352.4L70.8 352.8L73.3 350.3L75.9 352.8L78.4 353.1L81 353.2L83.5 352.8L86.1 352.6L88.6 350.4L91.2 353.1L93.7 352.7L96.3 351.4L98.8 351.4L101.4 350.3L103.9 347.6L106.5 350.9L109 348.2L111.6 351.2L114.1 351.1L116.7 351.3L119.2 351L121.8 350.6L124.3 349.5L126.9 349.7L129.4 349.5L132 364.4L134.5 388.6L137.1 390L139.6 387.4L142.2 386.1L144.7 388.1L147.3 387.3L149.8 384.6L152.4 389L154.9 389.1L157.5 387.4L160 386.9L162.6 385.3L165.1 384.5L167.7 382.8L170.2 388.8L172.8 391.3L175.3 387.5L177.9 386.8L180.4 388.5L183 385.6L185.5 386.5L188.1 382.6L190.6 386.5L193.2 385.2L195.7 388.8L198.3 385.6L200.8 390L203.4 387.3L205.9 385.8L208.5 391.7L211 389.6L213.6 388.3L216.1 386.8L218.7 384.5L221.2 386.8L223.8 389.6L226.3 387.3L228.9 388.3L231.4 387.1L234 388L236.5 385.4L239.1 386L241.6 385.2L244.2 386.8L246.7 390.6L249.3 389.6L251.8 386.9L254.4 389.6L256.9 387.6L259.5 385.2L262 387.7L264.6 389.7L267.1 387L269.7 387.8L272.2 386.2L274.8 389L277.3 388.1L279.9 389.1L282.4 383.1L285 389.3L287.5 389.1L290.1 385.8L292.6 356.7L295.2 357.4L297.7 358.4L300.3 358.7L302.8 358.7L305.4 358.7L307.9 358.6L310.5 357.3L313 358.5L315.6 358.6L318.1 358.4L320.7 358.4L323.2 358.6L325.8 358.4L328.3 358.5L330.9 358.5L333.4 358.4L336 358.4L338.5 357.8L341.1 346.9L343.6 343L346.2 352.8L348.7 358.1" fill="none" stroke="var(--ms-info, #17558f)" stroke-width="1.4" stroke-linejoin="round"/>
	<path d="M45.3 357.4L47.8 357.5L50.4 353.7L52.9 354.7L55.5 356.4L58 356.2L60.6 355.9L63.1 354.5L65.7 355.1L68.2 355.6L70.8 356.5L73.3 353.5L75.9 356.8L78.4 357.2L81 357.3L83.5 356.9L86.1 356.8L88.6 356.8L91.2 357.2L93.7 352.8L96.3 353.5L98.8 355.1L101.4 349.5L103.9 351.4L106.5 352.4L109 340L111.6 352.6L114.1 354.4L116.7 354.6L119.2 352.4L121.8 354.3L124.3 352.4L126.9 345.6L129.4 340L132 372L134.5 426.1L137.1 424.7L139.6 427L142.2 419.5L144.7 423.9L147.3 419.5L149.8 418.6L152.4 420L154.9 420.4L157.5 423.4L160 421.3L162.6 413.9L165.1 410.3L167.7 415.3L170.2 419.3L172.8 429.2L175.3 419.8L177.9 424.9L180.4 418.9L183 416.4L185.5 417.2L188.1 411.7L190.6 415.8L193.2 414.5L195.7 417.4L198.3 415.3L200.8 424.4L203.4 416.3L205.9 416.1L208.5 437.2L211 429.2L213.6 421.9L216.1 420L218.7 417L221.2 421.5L223.8 423.9L226.3 424.4L228.9 427.7L231.4 423.2L234 426.7L236.5 413.6L239.1 414.1L241.6 413.3L244.2 417.6L246.7 431.9L249.3 422.7L251.8 418.4L254.4 423.9L256.9 414.6L259.5 419.8L262 419.7L264.6 423.7L267.1 418.3L269.7 421.1L272.2 420.7L274.8 428.4L277.3 422.7L279.9 426.1L282.4 412.1L285 424.9L287.5 427L290.1 418.4L292.6 358.3L295.2 352.2L297.7 360.8L300.3 361.3L302.8 361.3L305.4 361.3L307.9 361.3L310.5 360.8L313 361.2L315.6 361.2L318.1 360.9L320.7 361.1L323.2 361.2L325.8 361L328.3 361.1L330.9 361.1L333.4 361.1L336 361L338.5 359L341.1 353.4L343.6 356.1L346.2 358.9L348.7 354.9" fill="none" stroke="var(--ms-mark-quiet, #b45309)" stroke-width="1.4" stroke-linejoin="round" stroke-dasharray="5 3"/>
	<line x1="44" y1="440" x2="350" y2="440" stroke="var(--ms-border-strong, #aab4ba)" stroke-width="1"/>
	<text x="2" y="465" font-family="ui-sans-serif,system-ui,sans-serif" font-size="12" font-weight="600" fill="var(--ms-heading, #10171b)">sfp-sfpplus1: paquetes por segundo, media horaria,</text>
	<text x="2" y="480" font-family="ui-sans-serif,system-ui,sans-serif" font-size="12" font-weight="600" fill="var(--ms-heading, #10171b)">escala logarítmica</text>
	<line x1="2" y1="492.5" x2="16" y2="492.5" stroke="var(--ms-info, #17558f)" stroke-width="2"/>
	<text x="20" y="497" font-family="ui-sans-serif,system-ui,sans-serif" font-size="11" fill="var(--ms-body, #2d383f)">recibidos</text>
	<line x1="87.44" y1="492.5" x2="101.44" y2="492.5" stroke="var(--ms-mark-quiet, #b45309)" stroke-width="2" stroke-dasharray="5 3"/>
	<text x="105.4" y="497" font-family="ui-sans-serif,system-ui,sans-serif" font-size="11" fill="var(--ms-body, #2d383f)">enviados por el bridge</text>
	<text x="39" y="613.7" text-anchor="end" font-family="ui-sans-serif,system-ui,sans-serif" font-size="11" fill="var(--ms-muted, #5a666d)">≤0,1</text>
	<text x="39" y="588.7" text-anchor="end" font-family="ui-sans-serif,system-ui,sans-serif" font-size="11" fill="var(--ms-muted, #5a666d)">1</text>
	<text x="39" y="563.7" text-anchor="end" font-family="ui-sans-serif,system-ui,sans-serif" font-size="11" fill="var(--ms-muted, #5a666d)">10</text>
	<text x="39" y="538.7" text-anchor="end" font-family="ui-sans-serif,system-ui,sans-serif" font-size="11" fill="var(--ms-muted, #5a666d)">100</text>
	<text x="39" y="513.7" text-anchor="end" font-family="ui-sans-serif,system-ui,sans-serif" font-size="11" fill="var(--ms-muted, #5a666d)">1 000</text>
	<path d="M45.3 564.3L47.8 564.4L50.4 565.1L52.9 564.1L55.5 563.6L58 563.7L60.6 563.9L63.1 563.7L65.7 563.7L68.2 563.6L70.8 563.9L73.3 564.7L75.9 564.9L78.4 564.9L81 564.8L83.5 564.2L86.1 564L88.6 564.8L91.2 564.8L93.7 564.7L96.3 564.8L98.8 564.8L101.4 564.7L103.9 564.5L106.5 564.8L109 565.5L111.6 564.9L114.1 563.5L116.7 564.9L119.2 564.9L121.8 564.9L124.3 564.8L126.9 565.2L129.4 565.3L132 523L134.5 523.3L137.1 523.7L139.6 523.7L142.2 523.7L144.7 523.8L147.3 523.7L149.8 520.7L152.4 523.6L154.9 523.6L157.5 522.3L160 522.2L162.6 522.3L165.1 522L167.7 521.7L170.2 522L172.8 522.1L175.3 519.1L177.9 522.8L180.4 523.7L183 518.3L185.5 520.8L188.1 523.2L190.6 515.2L193.2 515.8L195.7 523.4L198.3 523.6L200.8 523.6L203.4 523.6L205.9 523.7L208.5 523.5L211 523.6L213.6 520.1L216.1 524L218.7 524.2L221.2 524.2L223.8 524.2L226.3 524.1L228.9 524L231.4 523.6L234 523.9L236.5 523.7L239.1 518.8L241.6 516.5L244.2 517.6L246.7 518.8L249.3 523.3L251.8 518.3L254.4 517.8L256.9 521.2L259.5 523.5L262 523.7L264.6 523.7L267.1 523.7L269.7 523.7L272.2 523.7L274.8 520.4L277.3 523.6L279.9 523.9L282.4 523.9L285 523.9L287.5 524.2L290.1 523.9L292.6 538.6L295.2 548.8L297.7 548.8L300.3 548.9L302.8 548.6L305.4 535.1L307.9 530.5L310.5 542.2L313 545.1L315.6 548.4L318.1 548.6L320.7 548.5L323.2 548.7L325.8 548.5L328.3 548.5L330.9 548.6L333.4 548.7L336 549L338.5 548.7L341.1 549.2L343.6 549.2L346.2 548.8L348.7 549.2" fill="none" stroke="var(--ms-info, #17558f)" stroke-width="1.4" stroke-linejoin="round"/>
	<path d="M45.3 610L47.8 610L50.4 610L52.9 610L55.5 610L58 610L60.6 610L63.1 610L65.7 610L68.2 610L70.8 610L73.3 610L75.9 610L78.4 610L81 610L83.5 610L86.1 610L88.6 610L91.2 610L93.7 610L96.3 610L98.8 610L101.4 610L103.9 610L106.5 610L109 610L111.6 610L114.1 610L116.7 610L119.2 610L121.8 610L124.3 610L126.9 610L129.4 610L132 527.8L134.5 524.4L137.1 527.8L139.6 527.5L142.2 527.9L144.7 527.9L147.3 527.9L149.8 527.2L152.4 526.8L154.9 526.6L157.5 525.6L160 526.1L162.6 526.3L165.1 525.9L167.7 523.6L170.2 526L172.8 518.9L175.3 523.8L177.9 524.5L180.4 527.5L183 524.2L185.5 522.1L188.1 527.1L190.6 510.5L193.2 512.1L195.7 525.2L198.3 527.7L200.8 527.7L203.4 527.8L205.9 527.8L208.5 527.5L211 527.8L213.6 527L216.1 528.1L218.7 528.2L221.2 528.2L223.8 528.2L226.3 528.1L228.9 528L231.4 526.6L234 528L236.5 526.9L239.1 520L241.6 518.7L244.2 519.6L246.7 522.3L249.3 527.2L251.8 516.2L254.4 514.1L256.9 526.3L259.5 526.1L262 527.7L264.6 527.8L267.1 527.9L269.7 527.9L272.2 527.8L274.8 526.9L277.3 520.7L279.9 527.9L282.4 527.5L285 527.9L287.5 528.2L290.1 527.8L292.6 541L295.2 548.7L297.7 548.7L300.3 548.9L302.8 548.6L305.4 533.3L307.9 530.2L310.5 533.8L313 543.6L315.6 547.9L318.1 548.3L320.7 548.5L323.2 548.8L325.8 548.6L328.3 548.5L330.9 548.7L333.4 548.7L336 548.9L338.5 548.7L341.1 549.1L343.6 549.3L346.2 548.9L348.7 549.4" fill="none" stroke="var(--ms-mark-quiet, #b45309)" stroke-width="1.4" stroke-linejoin="round" stroke-dasharray="5 3"/>
	<line x1="44" y1="610" x2="350" y2="610" stroke="var(--ms-border-strong, #aab4ba)" stroke-width="1"/>
	<line x1="130.7" y1="170" x2="130.7" y2="270" stroke="var(--ms-border-strong, #aab4ba)" stroke-width="1" stroke-dasharray="4 3"/>
	<line x1="130.7" y1="340" x2="130.7" y2="440" stroke="var(--ms-border-strong, #aab4ba)" stroke-width="1" stroke-dasharray="4 3"/>
	<line x1="130.7" y1="510" x2="130.7" y2="610" stroke="var(--ms-border-strong, #aab4ba)" stroke-width="1" stroke-dasharray="4 3"/>
	<line x1="291.6" y1="170" x2="291.6" y2="270" stroke="var(--ms-border-strong, #aab4ba)" stroke-width="1" stroke-dasharray="4 3"/>
	<line x1="291.6" y1="340" x2="291.6" y2="440" stroke="var(--ms-border-strong, #aab4ba)" stroke-width="1" stroke-dasharray="4 3"/>
	<line x1="291.6" y1="510" x2="291.6" y2="610" stroke="var(--ms-border-strong, #aab4ba)" stroke-width="1" stroke-dasharray="4 3"/>
	<text x="77.2" y="627" text-anchor="middle" font-family="ui-sans-serif,system-ui,sans-serif" font-size="11" fill="var(--ms-muted, #5a666d)">09-20</text>
	<text x="138.4" y="627" text-anchor="middle" font-family="ui-sans-serif,system-ui,sans-serif" font-size="11" fill="var(--ms-muted, #5a666d)">09-21</text>
	<text x="199.5" y="627" text-anchor="middle" font-family="ui-sans-serif,system-ui,sans-serif" font-size="11" fill="var(--ms-muted, #5a666d)">09-22</text>
	<text x="260.8" y="627" text-anchor="middle" font-family="ui-sans-serif,system-ui,sans-serif" font-size="11" fill="var(--ms-muted, #5a666d)">09-23</text>
	<text x="322" y="627" text-anchor="middle" font-family="ui-sans-serif,system-ui,sans-serif" font-size="11" fill="var(--ms-muted, #5a666d)">09-24</text>
</svg>
