<svg xmlns="http://www.w3.org/2000/svg" viewBox="0 0 360 605" width="100%" role="img" aria-labelledby="loop-2026-09-19-es-narrow-t loop-2026-09-19-es-narrow-d">
	<title id="loop-2026-09-19-es-narrow-t">La vuelta del bucle, hora a hora</title>
	<desc id="loop-2026-09-19-es-narrow-d">Por horas, del 2026-09-19 11:00 al 2026-09-24 11:00 UTC, del almacén InfluxDB de referencia (RB5009UG+S+, RouterOS 7.24.4, Linux 5.6.3). Hasta el 2026-09-20 21:00 el kernel anotó como mucho 12 registros de dirección propia por hora, mientras el bridge no enviaba nada a sfp-sfpplus1 en ninguna hora y recibía 6,5 por segundo de él. Desde entonces y hasta el último registro, el 2026-09-23 12:06:46, registró una mediana de 1 798 por hora, uno cada 2,0 s, y el bridge envió a ether2 0,6 paquetes por segundo frente a 13 recibidos. Después, ether2 recibió 183 y se le enviaron 144. Las tasas son medianas de las medias horarias.</desc>
	<rect x="291.3" y="52" width="58.7" height="531" fill="none"/>
	<rect x="129.3" y="52" width="162" height="531" fill="var(--ms-status-bad-soft, #fbe7e6)"/>
	<rect x="42" y="52" width="87.3" height="531" fill="var(--ms-status-bad-soft, #fbe7e6)"/>
	<line x1="42" y1="257" x2="350" y2="257" stroke="var(--ms-border, #d4dade)" stroke-width="1"/>
	<line x1="42" y1="207" x2="350" y2="207" stroke="var(--ms-border, #d4dade)" stroke-width="1"/>
	<line x1="42" y1="157" x2="350" y2="157" stroke="var(--ms-border, #d4dade)" stroke-width="1"/>
	<line x1="42" y1="420" x2="350" y2="420" stroke="var(--ms-border, #d4dade)" stroke-width="1"/>
	<line x1="42" y1="395" x2="350" y2="395" stroke="var(--ms-border, #d4dade)" stroke-width="1"/>
	<line x1="42" y1="370" x2="350" y2="370" stroke="var(--ms-border, #d4dade)" stroke-width="1"/>
	<line x1="42" y1="345" x2="350" y2="345" stroke="var(--ms-border, #d4dade)" stroke-width="1"/>
	<line x1="42" y1="320" x2="350" y2="320" stroke="var(--ms-border, #d4dade)" stroke-width="1"/>
	<line x1="42" y1="583" x2="350" y2="583" stroke="var(--ms-border, #d4dade)" stroke-width="1"/>
	<line x1="42" y1="558" x2="350" y2="558" stroke="var(--ms-border, #d4dade)" stroke-width="1"/>
	<line x1="42" y1="533" x2="350" y2="533" stroke="var(--ms-border, #d4dade)" stroke-width="1"/>
	<line x1="42" y1="508" x2="350" y2="508" stroke="var(--ms-border, #d4dade)" stroke-width="1"/>
	<line x1="42" y1="483" x2="350" y2="483" stroke="var(--ms-border, #d4dade)" stroke-width="1"/>
	<line x1="75.4" y1="52" x2="75.4" y2="583" stroke="var(--ms-border, #d4dade)" stroke-width="1" stroke-dasharray="2 3"/>
	<line x1="137" y1="52" x2="137" y2="583" stroke="var(--ms-border, #d4dade)" stroke-width="1" stroke-dasharray="2 3"/>
	<line x1="198.6" y1="52" x2="198.6" y2="583" stroke="var(--ms-border, #d4dade)" stroke-width="1" stroke-dasharray="2 3"/>
	<line x1="260.2" y1="52" x2="260.2" y2="583" stroke="var(--ms-border, #d4dade)" stroke-width="1" stroke-dasharray="2 3"/>
	<line x1="321.8" y1="52" x2="321.8" y2="583" stroke="var(--ms-border, #d4dade)" stroke-width="1" stroke-dasharray="2 3"/>
	<text x="2" y="16" font-family="ui-sans-serif,system-ui,sans-serif" font-size="10" fill="var(--ms-muted, #5a666d)">RB5009UG+S+ · RouterOS 7.24.4 · Linux 5.6.3</text>
	<text x="2" y="30" font-family="ui-sans-serif,system-ui,sans-serif" font-size="10" fill="var(--ms-muted, #5a666d)">del 2026-09-19 11:00 al 2026-09-24 11:00 UTC</text>
	<text x="2" y="44" font-family="ui-sans-serif,system-ui,sans-serif" font-size="10" fill="var(--ms-muted, #5a666d)">por horas, del almacén InfluxDB de referencia</text>
	<text x="46" y="65" font-family="ui-sans-serif,system-ui,sans-serif" font-size="10" font-weight="600" fill="var(--ms-body, #2d383f)">sfp-sfpplus1</text>
	<text x="46" y="78" font-family="ui-sans-serif,system-ui,sans-serif" font-size="10" font-weight="600" fill="var(--ms-body, #2d383f)">aislado</text>
	<text x="133.3" y="65" font-family="ui-sans-serif,system-ui,sans-serif" font-size="10" font-weight="600" fill="var(--ms-body, #2d383f)">ether2 aislado</text>
	<text x="295.3" y="65" font-family="ui-sans-serif,system-ui,sans-serif" font-size="10" font-weight="600" fill="var(--ms-body, #2d383f)">sin bucle</text>
	<text x="2" y="106.5" font-family="ui-sans-serif,system-ui,sans-serif" font-size="11.5" font-weight="600" fill="var(--ms-heading, #10171b)">Registros de dirección propia en el log del kernel, por</text>
	<text x="2" y="121" font-family="ui-sans-serif,system-ui,sans-serif" font-size="11.5" font-weight="600" fill="var(--ms-heading, #10171b)">hora</text>
	<text x="2" y="135" font-family="ui-sans-serif,system-ui,sans-serif" font-size="10" fill="var(--ms-muted, #5a666d)">como mucho 12 por hora antes del 09-20 21:00, después una</text>
	<text x="2" y="149" font-family="ui-sans-serif,system-ui,sans-serif" font-size="10" fill="var(--ms-muted, #5a666d)">mediana de 1 798</text>
	<text x="37" y="260.3" text-anchor="end" font-family="ui-sans-serif,system-ui,sans-serif" font-size="10" fill="var(--ms-muted, #5a666d)">0</text>
	<text x="37" y="210.3" text-anchor="end" font-family="ui-sans-serif,system-ui,sans-serif" font-size="10" fill="var(--ms-muted, #5a666d)">1 000</text>
	<text x="37" y="160.3" text-anchor="end" font-family="ui-sans-serif,system-ui,sans-serif" font-size="10" fill="var(--ms-muted, #5a666d)">2 000</text>
	<rect x="49.7" y="256.8" width="2.6" height="0.2" fill="var(--ms-status-bad, #b3352f)"/>
	<rect x="57.4" y="256.9" width="2.6" height="0.1" fill="var(--ms-status-bad, #b3352f)"/>
	<rect x="60" y="256.8" width="2.6" height="0.2" fill="var(--ms-status-bad, #b3352f)"/>
	<rect x="62.5" y="256.4" width="2.6" height="0.6" fill="var(--ms-status-bad, #b3352f)"/>
	<rect x="70.2" y="256.9" width="2.6" height="0.1" fill="var(--ms-status-bad, #b3352f)"/>
	<rect x="72.8" y="256.9" width="2.6" height="0.1" fill="var(--ms-status-bad, #b3352f)"/>
	<rect x="75.4" y="256.7" width="2.6" height="0.3" fill="var(--ms-status-bad, #b3352f)"/>
	<rect x="93.3" y="256.9" width="2.6" height="0.1" fill="var(--ms-status-bad, #b3352f)"/>
	<rect x="98.5" y="256.8" width="2.6" height="0.2" fill="var(--ms-status-bad, #b3352f)"/>
	<rect x="103.6" y="256.8" width="2.6" height="0.2" fill="var(--ms-status-bad, #b3352f)"/>
	<rect x="106.2" y="256.9" width="2.6" height="0.1" fill="var(--ms-status-bad, #b3352f)"/>
	<rect x="108.7" y="256.9" width="2.6" height="0.1" fill="var(--ms-status-bad, #b3352f)"/>
	<rect x="111.3" y="256.9" width="2.6" height="0.1" fill="var(--ms-status-bad, #b3352f)"/>
	<rect x="119" y="256.8" width="2.6" height="0.2" fill="var(--ms-status-bad, #b3352f)"/>
	<rect x="121.6" y="256.9" width="2.6" height="0.1" fill="var(--ms-status-bad, #b3352f)"/>
	<rect x="124.1" y="256.9" width="2.6" height="0.1" fill="var(--ms-status-bad, #b3352f)"/>
	<rect x="126.7" y="256.7" width="2.6" height="0.3" fill="var(--ms-status-bad, #b3352f)"/>
	<rect x="129.3" y="188.8" width="2.6" height="68.2" fill="var(--ms-status-bad, #b3352f)"/>
	<rect x="131.8" y="167.1" width="2.6" height="89.9" fill="var(--ms-status-bad, #b3352f)"/>
	<rect x="134.4" y="167.1" width="2.6" height="89.9" fill="var(--ms-status-bad, #b3352f)"/>
	<rect x="137" y="167" width="2.6" height="90" fill="var(--ms-status-bad, #b3352f)"/>
	<rect x="139.5" y="167.1" width="2.6" height="89.9" fill="var(--ms-status-bad, #b3352f)"/>
	<rect x="142.1" y="167.1" width="2.6" height="89.9" fill="var(--ms-status-bad, #b3352f)"/>
	<rect x="144.7" y="167.1" width="2.6" height="89.9" fill="var(--ms-status-bad, #b3352f)"/>
	<rect x="147.2" y="167.1" width="2.6" height="89.9" fill="var(--ms-status-bad, #b3352f)"/>
	<rect x="149.8" y="167.1" width="2.6" height="89.9" fill="var(--ms-status-bad, #b3352f)"/>
	<rect x="152.4" y="167.2" width="2.6" height="89.8" fill="var(--ms-status-bad, #b3352f)"/>
	<rect x="154.9" y="167.1" width="2.6" height="89.9" fill="var(--ms-status-bad, #b3352f)"/>
	<rect x="157.5" y="167.3" width="2.6" height="89.8" fill="var(--ms-status-bad, #b3352f)"/>
	<rect x="160.1" y="167.2" width="2.6" height="89.8" fill="var(--ms-status-bad, #b3352f)"/>
	<rect x="162.6" y="167.3" width="2.6" height="89.8" fill="var(--ms-status-bad, #b3352f)"/>
	<rect x="165.2" y="167.2" width="2.6" height="89.8" fill="var(--ms-status-bad, #b3352f)"/>
	<rect x="167.8" y="167.1" width="2.6" height="89.9" fill="var(--ms-status-bad, #b3352f)"/>
	<rect x="170.3" y="167.1" width="2.6" height="89.9" fill="var(--ms-status-bad, #b3352f)"/>
	<rect x="172.9" y="167.2" width="2.6" height="89.9" fill="var(--ms-status-bad, #b3352f)"/>
	<rect x="175.5" y="167.1" width="2.6" height="89.9" fill="var(--ms-status-bad, #b3352f)"/>
	<rect x="178" y="170.3" width="2.6" height="86.7" fill="var(--ms-status-bad, #b3352f)"/>
	<rect x="180.6" y="167.2" width="2.6" height="89.9" fill="var(--ms-status-bad, #b3352f)"/>
	<rect x="183.2" y="167.3" width="2.6" height="89.8" fill="var(--ms-status-bad, #b3352f)"/>
	<rect x="185.7" y="167.2" width="2.6" height="89.8" fill="var(--ms-status-bad, #b3352f)"/>
	<rect x="188.3" y="167.2" width="2.6" height="89.8" fill="var(--ms-status-bad, #b3352f)"/>
	<rect x="190.9" y="167.3" width="2.6" height="89.8" fill="var(--ms-status-bad, #b3352f)"/>
	<rect x="193.4" y="167.2" width="2.6" height="89.8" fill="var(--ms-status-bad, #b3352f)"/>
	<rect x="196" y="167.1" width="2.6" height="89.9" fill="var(--ms-status-bad, #b3352f)"/>
	<rect x="198.6" y="167" width="2.6" height="90" fill="var(--ms-status-bad, #b3352f)"/>
	<rect x="201.1" y="167.1" width="2.6" height="89.9" fill="var(--ms-status-bad, #b3352f)"/>
	<rect x="203.7" y="167.1" width="2.6" height="89.9" fill="var(--ms-status-bad, #b3352f)"/>
	<rect x="206.3" y="167.1" width="2.6" height="89.9" fill="var(--ms-status-bad, #b3352f)"/>
	<rect x="208.8" y="167.1" width="2.6" height="89.9" fill="var(--ms-status-bad, #b3352f)"/>
	<rect x="211.4" y="167.1" width="2.6" height="89.9" fill="var(--ms-status-bad, #b3352f)"/>
	<rect x="214" y="167.2" width="2.6" height="89.9" fill="var(--ms-status-bad, #b3352f)"/>
	<rect x="216.5" y="167.1" width="2.6" height="89.9" fill="var(--ms-status-bad, #b3352f)"/>
	<rect x="219.1" y="167.3" width="2.6" height="89.8" fill="var(--ms-status-bad, #b3352f)"/>
	<rect x="221.7" y="167.2" width="2.6" height="89.9" fill="var(--ms-status-bad, #b3352f)"/>
	<rect x="224.2" y="167.1" width="2.6" height="89.9" fill="var(--ms-status-bad, #b3352f)"/>
	<rect x="226.8" y="167.1" width="2.6" height="89.9" fill="var(--ms-status-bad, #b3352f)"/>
	<rect x="229.4" y="167.2" width="2.6" height="89.9" fill="var(--ms-status-bad, #b3352f)"/>
	<rect x="231.9" y="167" width="2.6" height="90" fill="var(--ms-status-bad, #b3352f)"/>
	<rect x="234.5" y="167.1" width="2.6" height="89.9" fill="var(--ms-status-bad, #b3352f)"/>
	<rect x="237.1" y="167.3" width="2.6" height="89.8" fill="var(--ms-status-bad, #b3352f)"/>
	<rect x="239.6" y="167.3" width="2.6" height="89.7" fill="var(--ms-status-bad, #b3352f)"/>
	<rect x="242.2" y="167.1" width="2.6" height="89.9" fill="var(--ms-status-bad, #b3352f)"/>
	<rect x="244.8" y="167.4" width="2.6" height="89.6" fill="var(--ms-status-bad, #b3352f)"/>
	<rect x="247.3" y="167.1" width="2.6" height="89.9" fill="var(--ms-status-bad, #b3352f)"/>
	<rect x="249.9" y="167.1" width="2.6" height="89.9" fill="var(--ms-status-bad, #b3352f)"/>
	<rect x="252.5" y="167.1" width="2.6" height="89.9" fill="var(--ms-status-bad, #b3352f)"/>
	<rect x="255" y="167.2" width="2.6" height="89.9" fill="var(--ms-status-bad, #b3352f)"/>
	<rect x="257.6" y="167.1" width="2.6" height="89.9" fill="var(--ms-status-bad, #b3352f)"/>
	<rect x="260.2" y="167.1" width="2.6" height="89.9" fill="var(--ms-status-bad, #b3352f)"/>
	<rect x="262.7" y="167.1" width="2.6" height="89.9" fill="var(--ms-status-bad, #b3352f)"/>
	<rect x="265.3" y="167.1" width="2.6" height="89.9" fill="var(--ms-status-bad, #b3352f)"/>
	<rect x="267.9" y="167.1" width="2.6" height="89.9" fill="var(--ms-status-bad, #b3352f)"/>
	<rect x="270.4" y="167.1" width="2.6" height="89.9" fill="var(--ms-status-bad, #b3352f)"/>
	<rect x="273" y="167.1" width="2.6" height="89.9" fill="var(--ms-status-bad, #b3352f)"/>
	<rect x="275.6" y="167.1" width="2.6" height="89.9" fill="var(--ms-status-bad, #b3352f)"/>
	<rect x="278.1" y="167.1" width="2.6" height="89.9" fill="var(--ms-status-bad, #b3352f)"/>
	<rect x="280.7" y="167.2" width="2.6" height="89.9" fill="var(--ms-status-bad, #b3352f)"/>
	<rect x="283.3" y="167.2" width="2.6" height="89.9" fill="var(--ms-status-bad, #b3352f)"/>
	<rect x="285.8" y="167.1" width="2.6" height="89.9" fill="var(--ms-status-bad, #b3352f)"/>
	<rect x="288.4" y="167.1" width="2.6" height="89.9" fill="var(--ms-status-bad, #b3352f)"/>
	<rect x="291" y="246.8" width="2.6" height="10.2" fill="var(--ms-status-bad, #b3352f)"/>
	<line x1="42" y1="257" x2="350" y2="257" stroke="var(--ms-border-strong, #aab4ba)" stroke-width="1"/>
	<text x="2" y="281.5" font-family="ui-sans-serif,system-ui,sans-serif" font-size="11.5" font-weight="600" fill="var(--ms-heading, #10171b)">ether2: paquetes por segundo, media horaria, escala</text>
	<text x="2" y="296" font-family="ui-sans-serif,system-ui,sans-serif" font-size="11.5" font-weight="600" fill="var(--ms-heading, #10171b)">logarítmica</text>
	<line x1="2" y1="308" x2="16" y2="308" stroke="var(--ms-info, #17558f)" stroke-width="2"/>
	<text x="20" y="312" font-family="ui-sans-serif,system-ui,sans-serif" font-size="10" fill="var(--ms-body, #2d383f)">recibidos</text>
	<line x1="82.4" y1="308" x2="96.4" y2="308" stroke="var(--ms-mark-quiet, #b45309)" stroke-width="2" stroke-dasharray="5 3"/>
	<text x="100.4" y="312" font-family="ui-sans-serif,system-ui,sans-serif" font-size="10" fill="var(--ms-body, #2d383f)">enviados por el bridge</text>
	<text x="37" y="423.3" text-anchor="end" font-family="ui-sans-serif,system-ui,sans-serif" font-size="10" fill="var(--ms-muted, #5a666d)">≤0,1</text>
	<text x="37" y="398.3" text-anchor="end" font-family="ui-sans-serif,system-ui,sans-serif" font-size="10" fill="var(--ms-muted, #5a666d)">1</text>
	<text x="37" y="373.3" text-anchor="end" font-family="ui-sans-serif,system-ui,sans-serif" font-size="10" fill="var(--ms-muted, #5a666d)">10</text>
	<text x="37" y="348.3" text-anchor="end" font-family="ui-sans-serif,system-ui,sans-serif" font-size="10" fill="var(--ms-muted, #5a666d)">100</text>
	<text x="37" y="323.3" text-anchor="end" font-family="ui-sans-serif,system-ui,sans-serif" font-size="10" fill="var(--ms-muted, #5a666d)">1 000</text>
	<path d="M43.3 333.3L45.9 333.4L48.4 332.9L51 332.8L53.6 332.7L56.1 332.8L58.7 332.1L61.3 331.1L63.8 331.4L66.4 332.4L69 332.8L71.5 330.3L74.1 332.8L76.7 333.1L79.2 333.2L81.8 332.8L84.4 332.6L86.9 330.4L89.5 333.1L92.1 332.7L94.6 331.4L97.2 331.4L99.8 330.3L102.3 327.6L104.9 330.9L107.5 328.2L110 331.2L112.6 331.1L115.2 331.3L117.7 331L120.3 330.6L122.9 329.5L125.4 329.7L128 329.5L130.6 344.4L133.1 368.6L135.7 370L138.3 367.4L140.8 366.1L143.4 368.1L146 367.3L148.5 364.6L151.1 369L153.6 369.1L156.2 367.4L158.8 366.9L161.4 365.3L163.9 364.5L166.5 362.8L169.1 368.8L171.6 371.3L174.2 367.5L176.8 366.8L179.3 368.5L181.9 365.6L184.5 366.5L187 362.6L189.6 366.5L192.2 365.2L194.7 368.8L197.3 365.6L199.9 370L202.4 367.3L205 365.8L207.6 371.7L210.1 369.6L212.7 368.3L215.3 366.8L217.8 364.5L220.4 366.8L223 369.6L225.5 367.3L228.1 368.3L230.7 367.1L233.2 368L235.8 365.4L238.4 366L240.9 365.2L243.5 366.8L246.1 370.6L248.6 369.6L251.2 366.9L253.8 369.6L256.3 367.6L258.9 365.2L261.5 367.7L264 369.7L266.6 367L269.2 367.8L271.7 366.2L274.3 369L276.9 368.1L279.4 369.1L282 363.1L284.5 369.3L287.1 369.1L289.7 365.8L292.3 336.7L294.8 337.4L297.4 338.4L300 338.7L302.5 338.7L305.1 338.7L307.7 338.6L310.2 337.3L312.8 338.5L315.3 338.6L317.9 338.4L320.5 338.4L323.1 338.6L325.6 338.4L328.2 338.5L330.8 338.5L333.3 338.4L335.9 338.4L338.5 337.8L341 326.9L343.6 323L346.2 332.8L348.7 338.1" fill="none" stroke="var(--ms-info, #17558f)" stroke-width="1.4" stroke-linejoin="round"/>
	<path d="M43.3 337.4L45.9 337.5L48.4 333.7L51 334.7L53.6 336.4L56.1 336.2L58.7 335.9L61.3 334.5L63.8 335.1L66.4 335.6L69 336.5L71.5 333.5L74.1 336.8L76.7 337.2L79.2 337.3L81.8 336.9L84.4 336.8L86.9 336.8L89.5 337.2L92.1 332.8L94.6 333.5L97.2 335.1L99.8 329.5L102.3 331.4L104.9 332.4L107.5 320L110 332.6L112.6 334.4L115.2 334.6L117.7 332.4L120.3 334.3L122.9 332.4L125.4 325.6L128 320L130.6 352L133.1 406.1L135.7 404.7L138.3 407L140.8 399.5L143.4 403.9L146 399.5L148.5 398.6L151.1 400L153.6 400.4L156.2 403.4L158.8 401.3L161.4 393.9L163.9 390.3L166.5 395.3L169.1 399.3L171.6 409.2L174.2 399.8L176.8 404.9L179.3 398.9L181.9 396.4L184.5 397.2L187 391.7L189.6 395.8L192.2 394.5L194.7 397.4L197.3 395.3L199.9 404.4L202.4 396.3L205 396.1L207.6 417.2L210.1 409.2L212.7 401.9L215.3 400L217.8 397L220.4 401.5L223 403.9L225.5 404.4L228.1 407.7L230.7 403.2L233.2 406.7L235.8 393.6L238.4 394.1L240.9 393.3L243.5 397.6L246.1 411.9L248.6 402.7L251.2 398.4L253.8 403.9L256.3 394.6L258.9 399.8L261.5 399.7L264 403.7L266.6 398.3L269.2 401.1L271.7 400.7L274.3 408.4L276.9 402.7L279.4 406.1L282 392.1L284.5 404.9L287.1 407L289.7 398.4L292.3 338.3L294.8 332.2L297.4 340.8L300 341.3L302.5 341.3L305.1 341.3L307.7 341.3L310.2 340.8L312.8 341.2L315.3 341.2L317.9 340.9L320.5 341.1L323.1 341.2L325.6 341L328.2 341.1L330.8 341.1L333.3 341.1L335.9 341L338.5 339L341 333.4L343.6 336.1L346.2 338.9L348.7 334.9" fill="none" stroke="var(--ms-mark-quiet, #b45309)" stroke-width="1.4" stroke-linejoin="round" stroke-dasharray="5 3"/>
	<line x1="42" y1="420" x2="350" y2="420" stroke="var(--ms-border-strong, #aab4ba)" stroke-width="1"/>
	<text x="2" y="444.5" font-family="ui-sans-serif,system-ui,sans-serif" font-size="11.5" font-weight="600" fill="var(--ms-heading, #10171b)">sfp-sfpplus1: paquetes por segundo, media horaria,</text>
	<text x="2" y="459" font-family="ui-sans-serif,system-ui,sans-serif" font-size="11.5" font-weight="600" fill="var(--ms-heading, #10171b)">escala logarítmica</text>
	<line x1="2" y1="471" x2="16" y2="471" stroke="var(--ms-info, #17558f)" stroke-width="2"/>
	<text x="20" y="475" font-family="ui-sans-serif,system-ui,sans-serif" font-size="10" fill="var(--ms-body, #2d383f)">recibidos</text>
	<line x1="82.4" y1="471" x2="96.4" y2="471" stroke="var(--ms-mark-quiet, #b45309)" stroke-width="2" stroke-dasharray="5 3"/>
	<text x="100.4" y="475" font-family="ui-sans-serif,system-ui,sans-serif" font-size="10" fill="var(--ms-body, #2d383f)">enviados por el bridge</text>
	<text x="37" y="586.3" text-anchor="end" font-family="ui-sans-serif,system-ui,sans-serif" font-size="10" fill="var(--ms-muted, #5a666d)">≤0,1</text>
	<text x="37" y="561.3" text-anchor="end" font-family="ui-sans-serif,system-ui,sans-serif" font-size="10" fill="var(--ms-muted, #5a666d)">1</text>
	<text x="37" y="536.3" text-anchor="end" font-family="ui-sans-serif,system-ui,sans-serif" font-size="10" fill="var(--ms-muted, #5a666d)">10</text>
	<text x="37" y="511.3" text-anchor="end" font-family="ui-sans-serif,system-ui,sans-serif" font-size="10" fill="var(--ms-muted, #5a666d)">100</text>
	<text x="37" y="486.3" text-anchor="end" font-family="ui-sans-serif,system-ui,sans-serif" font-size="10" fill="var(--ms-muted, #5a666d)">1 000</text>
	<path d="M43.3 537.3L45.9 537.4L48.4 538.1L51 537.1L53.6 536.6L56.1 536.7L58.7 536.9L61.3 536.7L63.8 536.7L66.4 536.6L69 536.9L71.5 537.7L74.1 537.9L76.7 537.9L79.2 537.8L81.8 537.2L84.4 537L86.9 537.8L89.5 537.8L92.1 537.7L94.6 537.8L97.2 537.8L99.8 537.7L102.3 537.5L104.9 537.8L107.5 538.5L110 537.9L112.6 536.5L115.2 537.9L117.7 537.9L120.3 537.9L122.9 537.8L125.4 538.2L128 538.3L130.6 496L133.1 496.3L135.7 496.7L138.3 496.7L140.8 496.7L143.4 496.8L146 496.7L148.5 493.7L151.1 496.6L153.6 496.6L156.2 495.3L158.8 495.2L161.4 495.3L163.9 495L166.5 494.7L169.1 495L171.6 495.1L174.2 492.1L176.8 495.8L179.3 496.7L181.9 491.3L184.5 493.8L187 496.2L189.6 488.2L192.2 488.8L194.7 496.4L197.3 496.6L199.9 496.6L202.4 496.6L205 496.7L207.6 496.5L210.1 496.6L212.7 493.1L215.3 497L217.8 497.2L220.4 497.2L223 497.2L225.5 497.1L228.1 497L230.7 496.6L233.2 496.9L235.8 496.7L238.4 491.8L240.9 489.5L243.5 490.6L246.1 491.8L248.6 496.3L251.2 491.3L253.8 490.8L256.3 494.2L258.9 496.5L261.5 496.7L264 496.7L266.6 496.7L269.2 496.7L271.7 496.7L274.3 493.4L276.9 496.6L279.4 496.9L282 496.9L284.5 496.9L287.1 497.2L289.7 496.9L292.3 511.6L294.8 521.8L297.4 521.8L300 521.9L302.5 521.6L305.1 508.1L307.7 503.5L310.2 515.2L312.8 518.1L315.3 521.4L317.9 521.6L320.5 521.5L323.1 521.7L325.6 521.5L328.2 521.5L330.8 521.6L333.3 521.7L335.9 522L338.5 521.7L341 522.2L343.6 522.2L346.2 521.8L348.7 522.2" fill="none" stroke="var(--ms-info, #17558f)" stroke-width="1.4" stroke-linejoin="round"/>
	<path d="M43.3 583L45.9 583L48.4 583L51 583L53.6 583L56.1 583L58.7 583L61.3 583L63.8 583L66.4 583L69 583L71.5 583L74.1 583L76.7 583L79.2 583L81.8 583L84.4 583L86.9 583L89.5 583L92.1 583L94.6 583L97.2 583L99.8 583L102.3 583L104.9 583L107.5 583L110 583L112.6 583L115.2 583L117.7 583L120.3 583L122.9 583L125.4 583L128 583L130.6 500.8L133.1 497.4L135.7 500.8L138.3 500.5L140.8 500.9L143.4 500.9L146 500.9L148.5 500.2L151.1 499.8L153.6 499.6L156.2 498.6L158.8 499.1L161.4 499.3L163.9 498.9L166.5 496.6L169.1 499L171.6 491.9L174.2 496.8L176.8 497.5L179.3 500.5L181.9 497.2L184.5 495.1L187 500.1L189.6 483.5L192.2 485.1L194.7 498.2L197.3 500.7L199.9 500.7L202.4 500.8L205 500.8L207.6 500.5L210.1 500.8L212.7 500L215.3 501.1L217.8 501.2L220.4 501.2L223 501.2L225.5 501.1L228.1 501L230.7 499.6L233.2 501L235.8 499.9L238.4 493L240.9 491.7L243.5 492.6L246.1 495.3L248.6 500.2L251.2 489.2L253.8 487.1L256.3 499.3L258.9 499.1L261.5 500.7L264 500.8L266.6 500.9L269.2 500.9L271.7 500.8L274.3 499.9L276.9 493.7L279.4 500.9L282 500.5L284.5 500.9L287.1 501.2L289.7 500.8L292.3 514L294.8 521.7L297.4 521.7L300 521.9L302.5 521.6L305.1 506.3L307.7 503.2L310.2 506.8L312.8 516.6L315.3 520.9L317.9 521.3L320.5 521.5L323.1 521.8L325.6 521.6L328.2 521.5L330.8 521.7L333.3 521.7L335.9 521.9L338.5 521.7L341 522.1L343.6 522.3L346.2 521.9L348.7 522.4" fill="none" stroke="var(--ms-mark-quiet, #b45309)" stroke-width="1.4" stroke-linejoin="round" stroke-dasharray="5 3"/>
	<line x1="42" y1="583" x2="350" y2="583" stroke="var(--ms-border-strong, #aab4ba)" stroke-width="1"/>
	<line x1="129.3" y1="52" x2="129.3" y2="583" stroke="var(--ms-border-strong, #aab4ba)" stroke-width="1" stroke-dasharray="4 3"/>
	<line x1="291.3" y1="52" x2="291.3" y2="583" stroke="var(--ms-border-strong, #aab4ba)" stroke-width="1" stroke-dasharray="4 3"/>
	<text x="75.4" y="599" text-anchor="middle" font-family="ui-sans-serif,system-ui,sans-serif" font-size="10" fill="var(--ms-muted, #5a666d)">09-20</text>
	<text x="137" y="599" text-anchor="middle" font-family="ui-sans-serif,system-ui,sans-serif" font-size="10" fill="var(--ms-muted, #5a666d)">09-21</text>
	<text x="198.6" y="599" text-anchor="middle" font-family="ui-sans-serif,system-ui,sans-serif" font-size="10" fill="var(--ms-muted, #5a666d)">09-22</text>
	<text x="260.2" y="599" text-anchor="middle" font-family="ui-sans-serif,system-ui,sans-serif" font-size="10" fill="var(--ms-muted, #5a666d)">09-23</text>
	<text x="321.8" y="599" text-anchor="middle" font-family="ui-sans-serif,system-ui,sans-serif" font-size="10" fill="var(--ms-muted, #5a666d)">09-24</text>
</svg>
