<svg xmlns="http://www.w3.org/2000/svg" viewBox="0 0 360 378" width="100%" role="img" aria-labelledby="port-overflow-2026-09-19-es-narrow-t port-overflow-2026-09-19-es-narrow-d">
	<title id="port-overflow-2026-09-19-es-narrow-t">El desbordamiento de recepción de ether1, antes y después de pararse</title>
	<desc id="port-overflow-2026-09-19-es-narrow-d">Cada diez minutos, del 2026-09-19 11:10 al 2026-09-20 00:00 UTC, del almacén InfluxDB de referencia (RB5009UG+S+, RouterOS 7.24.4, Linux 5.6.3): los incrementos de los contadores rx-overflow y de paquetes recibidos de ether1, leídos por la capa de la API una mediana de 56 veces cada diez minutos. Todos los tramos de diez minutos desde las 11:10 hasta las 15:30 desbordaron, 24 550 en las 4 h 20 min anteriores a las 15:30; las dos horas siguientes no tuvieron ninguno, y las 8 h 30 min posteriores enteras, 131. El puerto recibió una mediana de 313 paquetes por segundo antes y 286 después.</desc>
	<line x1="42" y1="208.5" x2="350" y2="208.5" stroke="var(--ms-border, #d4dade)" stroke-width="1"/>
	<line x1="42" y1="175.2" x2="350" y2="175.2" stroke="var(--ms-border, #d4dade)" stroke-width="1"/>
	<line x1="42" y1="141.8" x2="350" y2="141.8" stroke="var(--ms-border, #d4dade)" stroke-width="1"/>
	<line x1="42" y1="108.5" x2="350" y2="108.5" stroke="var(--ms-border, #d4dade)" stroke-width="1"/>
	<line x1="42" y1="355.5" x2="350" y2="355.5" stroke="var(--ms-border, #d4dade)" stroke-width="1"/>
	<line x1="42" y1="305.5" x2="350" y2="305.5" stroke="var(--ms-border, #d4dade)" stroke-width="1"/>
	<line x1="42" y1="255.5" x2="350" y2="255.5" stroke="var(--ms-border, #d4dade)" stroke-width="1"/>
	<line x1="62" y1="52" x2="62" y2="355.5" stroke="var(--ms-border, #d4dade)" stroke-width="1" stroke-dasharray="2 3"/>
	<line x1="110" y1="52" x2="110" y2="355.5" stroke="var(--ms-border, #d4dade)" stroke-width="1" stroke-dasharray="2 3"/>
	<line x1="158" y1="52" x2="158" y2="355.5" stroke="var(--ms-border, #d4dade)" stroke-width="1" stroke-dasharray="2 3"/>
	<line x1="206" y1="52" x2="206" y2="355.5" stroke="var(--ms-border, #d4dade)" stroke-width="1" stroke-dasharray="2 3"/>
	<line x1="254" y1="52" x2="254" y2="355.5" stroke="var(--ms-border, #d4dade)" stroke-width="1" stroke-dasharray="2 3"/>
	<line x1="302" y1="52" x2="302" y2="355.5" stroke="var(--ms-border, #d4dade)" stroke-width="1" stroke-dasharray="2 3"/>
	<text x="2" y="16" font-family="ui-sans-serif,system-ui,sans-serif" font-size="10" fill="var(--ms-muted, #5a666d)">RB5009UG+S+ · RouterOS 7.24.4 · Linux 5.6.3</text>
	<text x="2" y="30" font-family="ui-sans-serif,system-ui,sans-serif" font-size="10" fill="var(--ms-muted, #5a666d)">del 2026-09-19 11:10 al 2026-09-20 00:00 UTC</text>
	<text x="2" y="44" font-family="ui-sans-serif,system-ui,sans-serif" font-size="10" fill="var(--ms-muted, #5a666d)">cada 10 minutos, del almacén InfluxDB de referencia</text>
	<text x="2" y="72.5" font-family="ui-sans-serif,system-ui,sans-serif" font-size="11.5" font-weight="600" fill="var(--ms-heading, #10171b)">rx-overflow de ether1, cada 10 minutos</text>
	<text x="2" y="86.5" font-family="ui-sans-serif,system-ui,sans-serif" font-size="10" fill="var(--ms-muted, #5a666d)">24 550 en las 4 h 20 min anteriores a las 15:30, 131 en las</text>
	<text x="2" y="100.5" font-family="ui-sans-serif,system-ui,sans-serif" font-size="10" fill="var(--ms-muted, #5a666d)">8 h 30 min posteriores</text>
	<text x="37" y="211.8" text-anchor="end" font-family="ui-sans-serif,system-ui,sans-serif" font-size="10" fill="var(--ms-muted, #5a666d)">0</text>
	<text x="37" y="178.5" text-anchor="end" font-family="ui-sans-serif,system-ui,sans-serif" font-size="10" fill="var(--ms-muted, #5a666d)">1 000</text>
	<text x="37" y="145.2" text-anchor="end" font-family="ui-sans-serif,system-ui,sans-serif" font-size="10" fill="var(--ms-muted, #5a666d)">2 000</text>
	<text x="37" y="111.8" text-anchor="end" font-family="ui-sans-serif,system-ui,sans-serif" font-size="10" fill="var(--ms-muted, #5a666d)">3 000</text>
	<rect x="42" y="184.3" width="4" height="24.2" fill="var(--ms-status-bad, #b3352f)"/>
	<rect x="46" y="188.9" width="4" height="19.6" fill="var(--ms-status-bad, #b3352f)"/>
	<rect x="50" y="191.9" width="4" height="16.6" fill="var(--ms-status-bad, #b3352f)"/>
	<rect x="54" y="193.2" width="4" height="15.3" fill="var(--ms-status-bad, #b3352f)"/>
	<rect x="58" y="185.7" width="4" height="22.8" fill="var(--ms-status-bad, #b3352f)"/>
	<rect x="62" y="162.4" width="4" height="46.1" fill="var(--ms-status-bad, #b3352f)"/>
	<rect x="66" y="180.8" width="4" height="27.7" fill="var(--ms-status-bad, #b3352f)"/>
	<rect x="70" y="163.6" width="4" height="44.9" fill="var(--ms-status-bad, #b3352f)"/>
	<rect x="74" y="192.4" width="4" height="16.1" fill="var(--ms-status-bad, #b3352f)"/>
	<rect x="78" y="182.9" width="4" height="25.6" fill="var(--ms-status-bad, #b3352f)"/>
	<rect x="82" y="182.8" width="4" height="25.7" fill="var(--ms-status-bad, #b3352f)"/>
	<rect x="86" y="183.6" width="4" height="24.9" fill="var(--ms-status-bad, #b3352f)"/>
	<rect x="90" y="186.4" width="4" height="22.1" fill="var(--ms-status-bad, #b3352f)"/>
	<rect x="94" y="168.4" width="4" height="40.1" fill="var(--ms-status-bad, #b3352f)"/>
	<rect x="98" y="176.2" width="4" height="32.3" fill="var(--ms-status-bad, #b3352f)"/>
	<rect x="102" y="167.7" width="4" height="40.8" fill="var(--ms-status-bad, #b3352f)"/>
	<rect x="106" y="153.1" width="4" height="55.4" fill="var(--ms-status-bad, #b3352f)"/>
	<rect x="110" y="175.5" width="4" height="33" fill="var(--ms-status-bad, #b3352f)"/>
	<rect x="114" y="176.5" width="4" height="32" fill="var(--ms-status-bad, #b3352f)"/>
	<rect x="118" y="186.3" width="4" height="22.2" fill="var(--ms-status-bad, #b3352f)"/>
	<rect x="122" y="189.3" width="4" height="19.2" fill="var(--ms-status-bad, #b3352f)"/>
	<rect x="126" y="183.9" width="4" height="24.6" fill="var(--ms-status-bad, #b3352f)"/>
	<rect x="130" y="160.3" width="4" height="48.2" fill="var(--ms-status-bad, #b3352f)"/>
	<rect x="134" y="160.5" width="4" height="48" fill="var(--ms-status-bad, #b3352f)"/>
	<rect x="138" y="133.8" width="4" height="74.7" fill="var(--ms-status-bad, #b3352f)"/>
	<rect x="142" y="192.3" width="4" height="16.2" fill="var(--ms-status-bad, #b3352f)"/>
	<rect x="194" y="208.4" width="4" height="0.1" fill="var(--ms-status-bad, #b3352f)"/>
	<rect x="214" y="208.2" width="4" height="0.3" fill="var(--ms-status-bad, #b3352f)"/>
	<rect x="242" y="208.2" width="4" height="0.3" fill="var(--ms-status-bad, #b3352f)"/>
	<rect x="262" y="207.5" width="4" height="1" fill="var(--ms-status-bad, #b3352f)"/>
	<rect x="278" y="208.4" width="4" height="0.1" fill="var(--ms-status-bad, #b3352f)"/>
	<rect x="294" y="208.3" width="4" height="0.2" fill="var(--ms-status-bad, #b3352f)"/>
	<rect x="302" y="207.7" width="4" height="0.8" fill="var(--ms-status-bad, #b3352f)"/>
	<rect x="306" y="208.1" width="4" height="0.4" fill="var(--ms-status-bad, #b3352f)"/>
	<rect x="314" y="208.2" width="4" height="0.3" fill="var(--ms-status-bad, #b3352f)"/>
	<rect x="326" y="208.3" width="4" height="0.2" fill="var(--ms-status-bad, #b3352f)"/>
	<rect x="330" y="208" width="4" height="0.5" fill="var(--ms-status-bad, #b3352f)"/>
	<line x1="42" y1="208.5" x2="350" y2="208.5" stroke="var(--ms-border-strong, #aab4ba)" stroke-width="1"/>
	<text x="2" y="233" font-family="ui-sans-serif,system-ui,sans-serif" font-size="11.5" font-weight="600" fill="var(--ms-heading, #10171b)">Paquetes por segundo recibidos en ether1, media de 10</text>
	<text x="2" y="247.5" font-family="ui-sans-serif,system-ui,sans-serif" font-size="11.5" font-weight="600" fill="var(--ms-heading, #10171b)">minutos</text>
	<text x="37" y="358.8" text-anchor="end" font-family="ui-sans-serif,system-ui,sans-serif" font-size="10" fill="var(--ms-muted, #5a666d)">0</text>
	<text x="37" y="308.8" text-anchor="end" font-family="ui-sans-serif,system-ui,sans-serif" font-size="10" fill="var(--ms-muted, #5a666d)">500</text>
	<text x="37" y="258.8" text-anchor="end" font-family="ui-sans-serif,system-ui,sans-serif" font-size="10" fill="var(--ms-muted, #5a666d)">1 000</text>
	<path d="M44 338.8L48 329.5L52 328.9L56 329.8L60 331.2L64 324.4L68 328.2L72 328.5L76 326.5L80 328.1L84 327.1L88 320.3L92 323.7L96 326.4L100 323.4L104 326.5L108 322L112 312.6L116 322.8L120 324.1L124 323.9L128 321.9L132 322.3L136 317.2L140 320.8L144 321.1L148 322.7L152 323.4L156 321L160 318.5L164 324.6L168 326.4L172 325.7L176 326.3L180 325.5L184 323.2L188 327.2L192 325.9L196 327.4L200 325.8L204 322.8L208 323.2L212 328.8L216 328.7L220 328.2L224 329.8L228 329.1L232 325.2L236 329.5L240 329.8L244 328.2L248 328.8L252 328.2L256 321.6L260 323.6L264 319.9L268 309.5L272 326.9L276 265.4L280 271.6L284 331L288 331L292 328.3L296 331.2L300 327.8L304 325.5L308 329.8L312 328.9L316 308.1L320 329.3L324 331.6L328 325.7L332 331.1L336 329.7L340 326.8L344 329.5L348 330.5" fill="none" stroke="var(--ms-info, #17558f)" stroke-width="1.4" stroke-linejoin="round"/>
	<line x1="42" y1="355.5" x2="350" y2="355.5" stroke="var(--ms-border-strong, #aab4ba)" stroke-width="1"/>
	<line x1="146" y1="52" x2="146" y2="355.5" stroke="var(--ms-border-strong, #aab4ba)" stroke-width="1" stroke-dasharray="4 3"/>
	<text x="62" y="371.5" text-anchor="middle" font-family="ui-sans-serif,system-ui,sans-serif" font-size="10" fill="var(--ms-muted, #5a666d)">12:00</text>
	<text x="110" y="371.5" text-anchor="middle" font-family="ui-sans-serif,system-ui,sans-serif" font-size="10" fill="var(--ms-muted, #5a666d)">14:00</text>
	<text x="158" y="371.5" text-anchor="middle" font-family="ui-sans-serif,system-ui,sans-serif" font-size="10" fill="var(--ms-muted, #5a666d)">16:00</text>
	<text x="206" y="371.5" text-anchor="middle" font-family="ui-sans-serif,system-ui,sans-serif" font-size="10" fill="var(--ms-muted, #5a666d)">18:00</text>
	<text x="254" y="371.5" text-anchor="middle" font-family="ui-sans-serif,system-ui,sans-serif" font-size="10" fill="var(--ms-muted, #5a666d)">20:00</text>
	<text x="302" y="371.5" text-anchor="middle" font-family="ui-sans-serif,system-ui,sans-serif" font-size="10" fill="var(--ms-muted, #5a666d)">22:00</text>
</svg>
